# xmcd
#
# Track frame offsets: 
#        150
#        24660
#        36532
#        66140
#        90605
#
# Disc length: 1237 seconds
#
# Revision: 1
# Processed by: cddbd v1.5.2PL0 Copyright (c) Steve Scherf et al.
# Submitted via: ExactAudioCopyFreeDBPlugin 1.0
#
DISCID=3e04d305
DTITLE=MC Einar - Panik
DYEAR=1989
DGENRE=Rap
TTITLE0=Panik
TTITLE1=Sorgenfri rap
TTITLE2=Panik (weekend-i-provinsen-mix)
TTITLE3=Instrumental panik
TTITLE4=Panik (the movie)
EXTD=
EXTT0=
EXTT1=
EXTT2=
EXTT3=
EXTT4=
PLAYORDER=
